<?xml version="1.0" encoding="UTF-8"?>
<svg xmlns="http://www.w3.org/2000/svg" viewBox="-476.0108143229914 -459.6398704983131 937.4346882191711 941.2921895415604">
<defs>
  <style>
    .cell-text { font: bold 20px sans-serif; text-anchor: middle; dominant-baseline: middle; }
    .grid-line { stroke: #666; stroke-width: 1; stroke-dasharray: 5,5; }
    .cube-box { stroke: #000; stroke-width: 2; fill: none; }
    .info-text { font: 16px sans-serif; }
    .orientation-text { font: bold 24px sans-serif; fill: blue; }
  </style>
</defs>
<path d="M -426.0108143229914,-409.6398704983131 L 411.4238738961797,-409.6398704983131 L -426.0108143229914,431.6523190432474 L 411.4238738961797,431.6523190432474 Z" fill="none" stroke="#000" stroke-width="2" stroke-dasharray="10,5"/>
<line class="grid-line" x1="-426.0108143229914" y1="-409.6398704983131" x2="-426.0108143229914" y2="-306.3232858177705"/>
<line class="grid-line" x1="-426.0108143229914" y1="-306.3232858177705" x2="-426.0108143229914" y2="-203.00670113722796"/>
<line class="grid-line" x1="-426.0108143229914" y1="-203.00670113722796" x2="-426.0108143229914" y2="-99.69011645668546"/>
<line class="grid-line" x1="-426.0108143229914" y1="-99.69011645668546" x2="-426.0108143229914" y2="11.006224272467225"/>
<line class="grid-line" x1="-426.0108143229914" y1="11.006224272467225" x2="-426.0108143229914" y2="114.32280895300973"/>
<line class="grid-line" x1="-426.0108143229914" y1="114.32280895300973" x2="-426.0108143229914" y2="217.63939363355223"/>
<line class="grid-line" x1="-426.0108143229914" y1="217.63939363355223" x2="-426.0108143229914" y2="320.95597831409486"/>
<line class="grid-line" x1="-426.0108143229914" y1="320.95597831409486" x2="-426.0108143229914" y2="431.6523190432474"/>
<line class="grid-line" x1="-323.1679578750229" y1="-409.6398704983131" x2="-323.1679578750229" y2="-306.3232858177705"/>
<line class="grid-line" x1="-323.1679578750229" y1="-306.3232858177705" x2="-323.1679578750229" y2="-203.00670113722796"/>
<line class="grid-line" x1="-323.1679578750229" y1="-203.00670113722796" x2="-323.1679578750229" y2="-99.69011645668546"/>
<line class="grid-line" x1="-323.1679578750229" y1="-99.69011645668546" x2="-323.1679578750229" y2="11.006224272467225"/>
<line class="grid-line" x1="-323.1679578750229" y1="11.006224272467225" x2="-323.1679578750229" y2="114.32280895300973"/>
<line class="grid-line" x1="-323.1679578750229" y1="114.32280895300973" x2="-323.1679578750229" y2="217.63939363355223"/>
<line class="grid-line" x1="-323.1679578750229" y1="217.63939363355223" x2="-323.1679578750229" y2="320.95597831409486"/>
<line class="grid-line" x1="-323.1679578750229" y1="320.95597831409486" x2="-323.1679578750229" y2="431.6523190432474"/>
<line class="grid-line" x1="-220.32510142705465" y1="-409.6398704983131" x2="-220.32510142705465" y2="-306.3232858177705"/>
<line class="grid-line" x1="-220.32510142705465" y1="-306.3232858177705" x2="-220.32510142705465" y2="-203.00670113722796"/>
<line class="grid-line" x1="-220.32510142705465" y1="-203.00670113722796" x2="-220.32510142705465" y2="-99.69011645668546"/>
<line class="grid-line" x1="-220.32510142705465" y1="-99.69011645668546" x2="-220.32510142705465" y2="11.006224272467225"/>
<line class="grid-line" x1="-220.32510142705465" y1="11.006224272467225" x2="-220.32510142705465" y2="114.32280895300973"/>
<line class="grid-line" x1="-220.32510142705465" y1="114.32280895300973" x2="-220.32510142705465" y2="217.63939363355223"/>
<line class="grid-line" x1="-220.32510142705465" y1="217.63939363355223" x2="-220.32510142705465" y2="320.95597831409486"/>
<line class="grid-line" x1="-220.32510142705465" y1="320.95597831409486" x2="-220.32510142705465" y2="431.6523190432474"/>
<line class="grid-line" x1="-117.48224497908622" y1="-409.6398704983131" x2="-117.48224497908622" y2="-306.3232858177705"/>
<line class="grid-line" x1="-117.48224497908622" y1="-306.3232858177705" x2="-117.48224497908622" y2="-203.00670113722796"/>
<line class="grid-line" x1="-117.48224497908622" y1="-203.00670113722796" x2="-117.48224497908622" y2="-99.69011645668546"/>
<line class="grid-line" x1="-117.48224497908622" y1="-99.69011645668546" x2="-117.48224497908622" y2="11.006224272467225"/>
<line class="grid-line" x1="-117.48224497908622" y1="11.006224272467225" x2="-117.48224497908622" y2="114.32280895300973"/>
<line class="grid-line" x1="-117.48224497908622" y1="114.32280895300973" x2="-117.48224497908622" y2="217.63939363355223"/>
<line class="grid-line" x1="-117.48224497908622" y1="217.63939363355223" x2="-117.48224497908622" y2="320.95597831409486"/>
<line class="grid-line" x1="-117.48224497908622" y1="320.95597831409486" x2="-117.48224497908622" y2="431.6523190432474"/>
<line class="grid-line" x1="-7.293470213405762" y1="-409.6398704983131" x2="-7.293470213405762" y2="-306.3232858177705"/>
<line class="grid-line" x1="-7.293470213405762" y1="-306.3232858177705" x2="-7.293470213405762" y2="-203.00670113722796"/>
<line class="grid-line" x1="-7.293470213405762" y1="-203.00670113722796" x2="-7.293470213405762" y2="-99.69011645668546"/>
<line class="grid-line" x1="-7.293470213405762" y1="-99.69011645668546" x2="-7.293470213405762" y2="11.006224272467225"/>
<line class="grid-line" x1="-7.293470213405762" y1="11.006224272467225" x2="-7.293470213405762" y2="114.32280895300973"/>
<line class="grid-line" x1="-7.293470213405762" y1="114.32280895300973" x2="-7.293470213405762" y2="217.63939363355223"/>
<line class="grid-line" x1="-7.293470213405762" y1="217.63939363355223" x2="-7.293470213405762" y2="320.95597831409486"/>
<line class="grid-line" x1="-7.293470213405762" y1="320.95597831409486" x2="-7.293470213405762" y2="431.6523190432474"/>
<line class="grid-line" x1="95.54938623456243" y1="-409.6398704983131" x2="95.54938623456243" y2="-306.3232858177705"/>
<line class="grid-line" x1="95.54938623456243" y1="-306.3232858177705" x2="95.54938623456243" y2="-203.00670113722796"/>
<line class="grid-line" x1="95.54938623456243" y1="-203.00670113722796" x2="95.54938623456243" y2="-99.69011645668546"/>
<line class="grid-line" x1="95.54938623456243" y1="-99.69011645668546" x2="95.54938623456243" y2="11.006224272467225"/>
<line class="grid-line" x1="95.54938623456243" y1="11.006224272467225" x2="95.54938623456243" y2="114.32280895300973"/>
<line class="grid-line" x1="95.54938623456243" y1="114.32280895300973" x2="95.54938623456243" y2="217.63939363355223"/>
<line class="grid-line" x1="95.54938623456243" y1="217.63939363355223" x2="95.54938623456243" y2="320.95597831409486"/>
<line class="grid-line" x1="95.54938623456243" y1="320.95597831409486" x2="95.54938623456243" y2="431.6523190432474"/>
<line class="grid-line" x1="198.39224268253085" y1="-409.6398704983131" x2="198.39224268253085" y2="-306.3232858177705"/>
<line class="grid-line" x1="198.39224268253085" y1="-306.3232858177705" x2="198.39224268253085" y2="-203.00670113722796"/>
<line class="grid-line" x1="198.39224268253085" y1="-203.00670113722796" x2="198.39224268253085" y2="-99.69011645668546"/>
<line class="grid-line" x1="198.39224268253085" y1="-99.69011645668546" x2="198.39224268253085" y2="11.006224272467225"/>
<line class="grid-line" x1="198.39224268253085" y1="11.006224272467225" x2="198.39224268253085" y2="114.32280895300973"/>
<line class="grid-line" x1="198.39224268253085" y1="114.32280895300973" x2="198.39224268253085" y2="217.63939363355223"/>
<line class="grid-line" x1="198.39224268253085" y1="217.63939363355223" x2="198.39224268253085" y2="320.95597831409486"/>
<line class="grid-line" x1="198.39224268253085" y1="320.95597831409486" x2="198.39224268253085" y2="431.6523190432474"/>
<line class="grid-line" x1="301.2350991304993" y1="-409.6398704983131" x2="301.2350991304993" y2="-306.3232858177705"/>
<line class="grid-line" x1="301.2350991304993" y1="-306.3232858177705" x2="301.2350991304993" y2="-203.00670113722796"/>
<line class="grid-line" x1="301.2350991304993" y1="-203.00670113722796" x2="301.2350991304993" y2="-99.69011645668546"/>
<line class="grid-line" x1="301.2350991304993" y1="-99.69011645668546" x2="301.2350991304993" y2="11.006224272467225"/>
<line class="grid-line" x1="301.2350991304993" y1="11.006224272467225" x2="301.2350991304993" y2="114.32280895300973"/>
<line class="grid-line" x1="301.2350991304993" y1="114.32280895300973" x2="301.2350991304993" y2="217.63939363355223"/>
<line class="grid-line" x1="301.2350991304993" y1="217.63939363355223" x2="301.2350991304993" y2="320.95597831409486"/>
<line class="grid-line" x1="301.2350991304993" y1="320.95597831409486" x2="301.2350991304993" y2="431.6523190432474"/>
<line class="grid-line" x1="411.4238738961797" y1="-409.6398704983131" x2="411.4238738961797" y2="-306.3232858177705"/>
<line class="grid-line" x1="411.4238738961797" y1="-306.3232858177705" x2="411.4238738961797" y2="-203.00670113722796"/>
<line class="grid-line" x1="411.4238738961797" y1="-203.00670113722796" x2="411.4238738961797" y2="-99.69011645668546"/>
<line class="grid-line" x1="411.4238738961797" y1="-99.69011645668546" x2="411.4238738961797" y2="11.006224272467225"/>
<line class="grid-line" x1="411.4238738961797" y1="11.006224272467225" x2="411.4238738961797" y2="114.32280895300973"/>
<line class="grid-line" x1="411.4238738961797" y1="114.32280895300973" x2="411.4238738961797" y2="217.63939363355223"/>
<line class="grid-line" x1="411.4238738961797" y1="217.63939363355223" x2="411.4238738961797" y2="320.95597831409486"/>
<line class="grid-line" x1="411.4238738961797" y1="320.95597831409486" x2="411.4238738961797" y2="431.6523190432474"/>
<line class="grid-line" x1="-426.0108143229914" y1="-409.6398704983131" x2="-323.1679578750229" y2="-409.6398704983131"/>
<line class="grid-line" x1="-323.1679578750229" y1="-409.6398704983131" x2="-220.32510142705465" y2="-409.6398704983131"/>
<line class="grid-line" x1="-220.32510142705465" y1="-409.6398704983131" x2="-117.48224497908622" y2="-409.6398704983131"/>
<line class="grid-line" x1="-117.48224497908622" y1="-409.6398704983131" x2="-7.293470213405762" y2="-409.6398704983131"/>
<line class="grid-line" x1="-7.293470213405762" y1="-409.6398704983131" x2="95.54938623456243" y2="-409.6398704983131"/>
<line class="grid-line" x1="95.54938623456243" y1="-409.6398704983131" x2="198.39224268253085" y2="-409.6398704983131"/>
<line class="grid-line" x1="198.39224268253085" y1="-409.6398704983131" x2="301.2350991304993" y2="-409.6398704983131"/>
<line class="grid-line" x1="301.2350991304993" y1="-409.6398704983131" x2="411.4238738961797" y2="-409.6398704983131"/>
<line class="grid-line" x1="-426.0108143229914" y1="-306.3232858177705" x2="-323.1679578750229" y2="-306.3232858177705"/>
<line class="grid-line" x1="-323.1679578750229" y1="-306.3232858177705" x2="-220.32510142705465" y2="-306.3232858177705"/>
<line class="grid-line" x1="-220.32510142705465" y1="-306.3232858177705" x2="-117.48224497908622" y2="-306.3232858177705"/>
<line class="grid-line" x1="-117.48224497908622" y1="-306.3232858177705" x2="-7.293470213405762" y2="-306.3232858177705"/>
<line class="grid-line" x1="-7.293470213405762" y1="-306.3232858177705" x2="95.54938623456243" y2="-306.3232858177705"/>
<line class="grid-line" x1="95.54938623456243" y1="-306.3232858177705" x2="198.39224268253085" y2="-306.3232858177705"/>
<line class="grid-line" x1="198.39224268253085" y1="-306.3232858177705" x2="301.2350991304993" y2="-306.3232858177705"/>
<line class="grid-line" x1="301.2350991304993" y1="-306.3232858177705" x2="411.4238738961797" y2="-306.3232858177705"/>
<line class="grid-line" x1="-426.0108143229914" y1="-203.00670113722796" x2="-323.1679578750229" y2="-203.00670113722796"/>
<line class="grid-line" x1="-323.1679578750229" y1="-203.00670113722796" x2="-220.32510142705465" y2="-203.00670113722796"/>
<line class="grid-line" x1="-220.32510142705465" y1="-203.00670113722796" x2="-117.48224497908622" y2="-203.00670113722796"/>
<line class="grid-line" x1="-117.48224497908622" y1="-203.00670113722796" x2="-7.293470213405762" y2="-203.00670113722796"/>
<line class="grid-line" x1="-7.293470213405762" y1="-203.00670113722796" x2="95.54938623456243" y2="-203.00670113722796"/>
<line class="grid-line" x1="95.54938623456243" y1="-203.00670113722796" x2="198.39224268253085" y2="-203.00670113722796"/>
<line class="grid-line" x1="198.39224268253085" y1="-203.00670113722796" x2="301.2350991304993" y2="-203.00670113722796"/>
<line class="grid-line" x1="301.2350991304993" y1="-203.00670113722796" x2="411.4238738961797" y2="-203.00670113722796"/>
<line class="grid-line" x1="-426.0108143229914" y1="-99.69011645668546" x2="-323.1679578750229" y2="-99.69011645668546"/>
<line class="grid-line" x1="-323.1679578750229" y1="-99.69011645668546" x2="-220.32510142705465" y2="-99.69011645668546"/>
<line class="grid-line" x1="-220.32510142705465" y1="-99.69011645668546" x2="-117.48224497908622" y2="-99.69011645668546"/>
<line class="grid-line" x1="-117.48224497908622" y1="-99.69011645668546" x2="-7.293470213405762" y2="-99.69011645668546"/>
<line class="grid-line" x1="-7.293470213405762" y1="-99.69011645668546" x2="95.54938623456243" y2="-99.69011645668546"/>
<line class="grid-line" x1="95.54938623456243" y1="-99.69011645668546" x2="198.39224268253085" y2="-99.69011645668546"/>
<line class="grid-line" x1="198.39224268253085" y1="-99.69011645668546" x2="301.2350991304993" y2="-99.69011645668546"/>
<line class="grid-line" x1="301.2350991304993" y1="-99.69011645668546" x2="411.4238738961797" y2="-99.69011645668546"/>
<line class="grid-line" x1="-426.0108143229914" y1="11.006224272467225" x2="-323.1679578750229" y2="11.006224272467225"/>
<line class="grid-line" x1="-323.1679578750229" y1="11.006224272467225" x2="-220.32510142705465" y2="11.006224272467225"/>
<line class="grid-line" x1="-220.32510142705465" y1="11.006224272467225" x2="-117.48224497908622" y2="11.006224272467225"/>
<line class="grid-line" x1="-117.48224497908622" y1="11.006224272467225" x2="-7.293470213405762" y2="11.006224272467225"/>
<line class="grid-line" x1="-7.293470213405762" y1="11.006224272467225" x2="95.54938623456243" y2="11.006224272467225"/>
<line class="grid-line" x1="95.54938623456243" y1="11.006224272467225" x2="198.39224268253085" y2="11.006224272467225"/>
<line class="grid-line" x1="198.39224268253085" y1="11.006224272467225" x2="301.2350991304993" y2="11.006224272467225"/>
<line class="grid-line" x1="301.2350991304993" y1="11.006224272467225" x2="411.4238738961797" y2="11.006224272467225"/>
<line class="grid-line" x1="-426.0108143229914" y1="114.32280895300973" x2="-323.1679578750229" y2="114.32280895300973"/>
<line class="grid-line" x1="-323.1679578750229" y1="114.32280895300973" x2="-220.32510142705465" y2="114.32280895300973"/>
<line class="grid-line" x1="-220.32510142705465" y1="114.32280895300973" x2="-117.48224497908622" y2="114.32280895300973"/>
<line class="grid-line" x1="-117.48224497908622" y1="114.32280895300973" x2="-7.293470213405762" y2="114.32280895300973"/>
<line class="grid-line" x1="-7.293470213405762" y1="114.32280895300973" x2="95.54938623456243" y2="114.32280895300973"/>
<line class="grid-line" x1="95.54938623456243" y1="114.32280895300973" x2="198.39224268253085" y2="114.32280895300973"/>
<line class="grid-line" x1="198.39224268253085" y1="114.32280895300973" x2="301.2350991304993" y2="114.32280895300973"/>
<line class="grid-line" x1="301.2350991304993" y1="114.32280895300973" x2="411.4238738961797" y2="114.32280895300973"/>
<line class="grid-line" x1="-426.0108143229914" y1="217.63939363355223" x2="-323.1679578750229" y2="217.63939363355223"/>
<line class="grid-line" x1="-323.1679578750229" y1="217.63939363355223" x2="-220.32510142705465" y2="217.63939363355223"/>
<line class="grid-line" x1="-220.32510142705465" y1="217.63939363355223" x2="-117.48224497908622" y2="217.63939363355223"/>
<line class="grid-line" x1="-117.48224497908622" y1="217.63939363355223" x2="-7.293470213405762" y2="217.63939363355223"/>
<line class="grid-line" x1="-7.293470213405762" y1="217.63939363355223" x2="95.54938623456243" y2="217.63939363355223"/>
<line class="grid-line" x1="95.54938623456243" y1="217.63939363355223" x2="198.39224268253085" y2="217.63939363355223"/>
<line class="grid-line" x1="198.39224268253085" y1="217.63939363355223" x2="301.2350991304993" y2="217.63939363355223"/>
<line class="grid-line" x1="301.2350991304993" y1="217.63939363355223" x2="411.4238738961797" y2="217.63939363355223"/>
<line class="grid-line" x1="-426.0108143229914" y1="320.95597831409486" x2="-323.1679578750229" y2="320.95597831409486"/>
<line class="grid-line" x1="-323.1679578750229" y1="320.95597831409486" x2="-220.32510142705465" y2="320.95597831409486"/>
<line class="grid-line" x1="-220.32510142705465" y1="320.95597831409486" x2="-117.48224497908622" y2="320.95597831409486"/>
<line class="grid-line" x1="-117.48224497908622" y1="320.95597831409486" x2="-7.293470213405762" y2="320.95597831409486"/>
<line class="grid-line" x1="-7.293470213405762" y1="320.95597831409486" x2="95.54938623456243" y2="320.95597831409486"/>
<line class="grid-line" x1="95.54938623456243" y1="320.95597831409486" x2="198.39224268253085" y2="320.95597831409486"/>
<line class="grid-line" x1="198.39224268253085" y1="320.95597831409486" x2="301.2350991304993" y2="320.95597831409486"/>
<line class="grid-line" x1="301.2350991304993" y1="320.95597831409486" x2="411.4238738961797" y2="320.95597831409486"/>
<line class="grid-line" x1="-426.0108143229914" y1="431.6523190432474" x2="-323.1679578750229" y2="431.6523190432474"/>
<line class="grid-line" x1="-323.1679578750229" y1="431.6523190432474" x2="-220.32510142705465" y2="431.6523190432474"/>
<line class="grid-line" x1="-220.32510142705465" y1="431.6523190432474" x2="-117.48224497908622" y2="431.6523190432474"/>
<line class="grid-line" x1="-117.48224497908622" y1="431.6523190432474" x2="-7.293470213405762" y2="431.6523190432474"/>
<line class="grid-line" x1="-7.293470213405762" y1="431.6523190432474" x2="95.54938623456243" y2="431.6523190432474"/>
<line class="grid-line" x1="95.54938623456243" y1="431.6523190432474" x2="198.39224268253085" y2="431.6523190432474"/>
<line class="grid-line" x1="198.39224268253085" y1="431.6523190432474" x2="301.2350991304993" y2="431.6523190432474"/>
<line class="grid-line" x1="301.2350991304993" y1="431.6523190432474" x2="411.4238738961797" y2="431.6523190432474"/>
<text class="cell-text" x="-426.0108143229914" y="-409.6398704983131">7</text>
<text class="cell-text" x="-426.0108143229914" y="-291.5637737205502">15</text>
<text class="cell-text" x="-426.0108143229914" y="-173.48767694278732">23</text>
<text class="cell-text" x="-426.0108143229914" y="-55.41158016502445">31</text>
<text class="cell-text" x="-426.0108143229914" y="70.04427266134871">39</text>
<text class="cell-text" x="-426.0108143229914" y="188.12036943911158">47</text>
<text class="cell-text" x="-426.0108143229914" y="306.19646621687446">55</text>
<text class="cell-text" x="-426.0108143229914" y="431.6523190432474">63</text>
<text class="cell-text" x="-308.4761212395989" y="-409.6398704983131">6</text>
<text class="cell-text" x="-308.4761212395989" y="-291.5637737205502">14</text>
<text class="cell-text" x="-308.4761212395989" y="-173.48767694278732">22</text>
<text class="cell-text" x="-308.4761212395989" y="-55.41158016502445">30</text>
<text class="cell-text" x="-308.4761212395989" y="70.04427266134871">38</text>
<text class="cell-text" x="-308.4761212395989" y="188.12036943911158">46</text>
<text class="cell-text" x="-308.4761212395989" y="306.19646621687446">54</text>
<text class="cell-text" x="-308.4761212395989" y="431.6523190432474">62</text>
<text class="cell-text" x="-190.9414281562065" y="-409.6398704983131">5</text>
<text class="cell-text" x="-190.9414281562065" y="-291.5637737205502">13</text>
<text class="cell-text" x="-190.9414281562065" y="-173.48767694278732">21</text>
<text class="cell-text" x="-190.9414281562065" y="-55.41158016502445">29</text>
<text class="cell-text" x="-190.9414281562065" y="70.04427266134871">37</text>
<text class="cell-text" x="-190.9414281562065" y="188.12036943911158">45</text>
<text class="cell-text" x="-190.9414281562065" y="306.19646621687446">53</text>
<text class="cell-text" x="-190.9414281562065" y="431.6523190432474">61</text>
<text class="cell-text" x="-73.40673507281403" y="-409.6398704983131">4</text>
<text class="cell-text" x="-73.40673507281403" y="-291.5637737205502">12</text>
<text class="cell-text" x="-73.40673507281403" y="-173.48767694278732">20</text>
<text class="cell-text" x="-73.40673507281403" y="-55.41158016502445">28</text>
<text class="cell-text" x="-73.40673507281403" y="70.04427266134871">36</text>
<rect class="cube-box" x="-136.90673507281403" y="6.544272661348714" width="127" height="127"/>
<text class="cell-text" x="-73.40673507281403" y="188.12036943911158">44</text>
<text class="cell-text" x="-73.40673507281403" y="306.19646621687446">52</text>
<text class="cell-text" x="-73.40673507281403" y="431.6523190432474">60</text>
<text class="cell-text" x="51.47387632829048" y="-409.6398704983131">3</text>
<text class="cell-text" x="51.47387632829048" y="-291.5637737205502">11</text>
<text class="cell-text" x="51.47387632829048" y="-173.48767694278732">19</text>
<text class="cell-text" x="51.47387632829048" y="-55.41158016502445">27</text>
<rect class="cube-box" x="-12.02612367170952" y="-118.91158016502445" width="127" height="127"/>
<text class="cell-text" x="51.47387632829048" y="70.04427266134871">35</text>
<text class="cell-text" x="51.47387632829048" y="188.12036943911158">43</text>
<text class="cell-text" x="51.47387632829048" y="306.19646621687446">51</text>
<text class="cell-text" x="51.47387632829048" y="431.6523190432474">59</text>
<text class="cell-text" x="169.00856941168274" y="-409.6398704983131">2</text>
<text class="cell-text" x="169.00856941168274" y="-291.5637737205502">10</text>
<text class="cell-text" x="169.00856941168274" y="-173.48767694278732">18</text>
<rect class="cube-box" x="105.50856941168274" y="-236.98767694278732" width="127" height="127"/>
<text class="cell-text" x="169.00856941168274" y="-55.41158016502445">26</text>
<text class="cell-text" x="169.00856941168274" y="70.04427266134871">34</text>
<text class="cell-text" x="169.00856941168274" y="188.12036943911158">42</text>
<text class="cell-text" x="169.00856941168274" y="306.19646621687446">50</text>
<text class="cell-text" x="169.00856941168274" y="431.6523190432474">58</text>
<text class="cell-text" x="286.5432624950752" y="-409.6398704983131">1</text>
<text class="cell-text" x="286.5432624950752" y="-291.5637737205502">9</text>
<rect class="cube-box" x="223.04326249507523" y="-355.0637737205502" width="127" height="127"/>
<text class="cell-text" x="286.5432624950752" y="-173.48767694278732">17</text>
<text class="cell-text" x="286.5432624950752" y="-55.41158016502445">25</text>
<text class="cell-text" x="286.5432624950752" y="70.04427266134871">33</text>
<text class="cell-text" x="286.5432624950752" y="188.12036943911158">41</text>
<text class="cell-text" x="286.5432624950752" y="306.19646621687446">49</text>
<text class="cell-text" x="286.5432624950752" y="431.6523190432474">57</text>
<text class="cell-text" x="411.4238738961797" y="-409.6398704983131">0</text>
<rect class="cube-box" x="347.9238738961797" y="-473.1398704983131" width="127" height="127"/>
<text class="cell-text" x="411.4238738961797" y="-291.5637737205502">8</text>
<text class="cell-text" x="411.4238738961797" y="-173.48767694278732">16</text>
<text class="cell-text" x="411.4238738961797" y="-55.41158016502445">24</text>
<text class="cell-text" x="411.4238738961797" y="70.04427266134871">32</text>
<text class="cell-text" x="411.4238738961797" y="188.12036943911158">40</text>
<text class="cell-text" x="411.4238738961797" y="306.19646621687446">48</text>
<text class="cell-text" x="411.4238738961797" y="431.6523190432474">56</text>
<circle cx="-426.0108143229914" cy="-409.6398704983131" r="5" fill="#000"/>
<circle cx="411.4238738961797" cy="-409.6398704983131" r="5" fill="#000"/>
<circle cx="-426.0108143229914" cy="431.6523190432474" r="5" fill="#000"/>
<circle cx="411.4238738961797" cy="431.6523190432474" r="5" fill="#000"/>
<g stroke="#000" stroke-width="2"><line x1="-10" y1="0" x2="10" y2="0"/><line x1="0" y1="-10" x2="0" y2="10"/></g>
<text class="orientation-text" x="311.4238738961797" y="-379.6398704983131">Cell 0</text>
<text class="orientation-text" x="-376.0108143229914" y="-379.6398704983131">Cell 7</text>
<text class="orientation-text" x="311.4238738961797" y="411.6523190432474">Cell 56</text>
<text class="orientation-text" x="-376.0108143229914" y="411.6523190432474">Cell 63</text>
<text x="-426.0108143229914" y="461.6523190432474" class="info-text">Scale: 1000mm from camera</text>
<text x="-426.0108143229914" y="491.6523190432474" class="info-text">Cube size: 127mm (5")</text>
</svg>